{
  "accessors": [
    {
      "bufferView": 1,
      "componentType": 5126,
      "count": 35652,
      "max": [
        396.6995849609375,
        -802.98028564453125,
        0.65090000629425049
      ],
      "min": [
        334.1422119140625,
        -865.34808349609375,
        -1.6805000305175781
      ],
      "type": "VEC3"
    },
    {
      "bufferView": 1,
      "byteOffset": 427824,
      "componentType": 5126,
      "count": 35652,
      "max": [
        0.9999539852142334,
        0.9999539852142334,
        1
      ],
      "min": [
        -0.9999539852142334,
        -0.9999539852142334,
        0.0095995590090751648
      ],
      "type": "VEC3"
    },
    {
      "bufferView": 0,
      "componentType": 5125,
      "count": 185184,
      "max": [
        35651
      ],
      "min": [
        0
      ],
      "type": "SCALAR"
    },
    {
      "bufferView": 1,
      "byteOffset": 855648,
      "componentType": 5126,
      "count": 17728,
      "max": [
        396.70150756835938,
        -802.9783935546875,
        0.10050000250339508
      ],
      "min": [
        334.14041137695312,
        -865.3499755859375,
        -3.7462999820709229
      ],
      "type": "VEC3"
    },
    {
      "bufferView": 1,
      "byteOffset": 1068384,
      "componentType": 5126,
      "count": 17728,
      "max": [
        1,
        1,
        0.068902567028999329
      ],
      "min": [
        -1,
        -1,
        0
      ],
      "type": "VEC3"
    },
    {
      "bufferView": 0,
      "byteOffset": 740736,
      "componentType": 5125,
      "count": 53184,
      "max": [
        17727
      ],
      "min": [
        0
      ],
      "type": "SCALAR"
    },
    {
      "bufferView": 1,
      "byteOffset": 1281120,
      "componentType": 5126,
      "count": 17728,
      "max": [
        396.70150756835938,
        -802.9783935546875,
        0.2800000011920929
      ],
      "min": [
        334.14041137695312,
        -865.3499755859375,
        -2.573199987411499
      ],
      "type": "VEC3"
    },
    {
      "bufferView": 1,
      "byteOffset": 1493856,
      "componentType": 5126,
      "count": 17728,
      "max": [
        0.99999940395355225,
        0.99999940395355225,
        0.29841169714927673
      ],
      "min": [
        -0.99999940395355225,
        -0.99999940395355225,
        0.0010999453952535987
      ],
      "type": "VEC3"
    },
    {
      "bufferView": 0,
      "byteOffset": 953472,
      "componentType": 5125,
      "count": 53184,
      "max": [
        17727
      ],
      "min": [
        0
      ],
      "type": "SCALAR"
    }
  ],
  "asset": {
    "extras": {
      "author": "kotbfg (https://sketchfab.com/kotbfg)",
      "license": "CC-BY-NC-4.0 (http://creativecommons.org/licenses/by-nc/4.0/)",
      "source": "https://sketchfab.com/models/de96df852fee417c9cccf33ec5b9f2c9",
      "title": "Doom 3 Floor Tile 08"
    },
    "generator": "Sketchfab-3.18.7",
    "version": "2.0"
  },
  "bufferViews": [
    {
      "buffer": 0,
      "byteLength": 1166208,
      "byteOffset": 0,
      "name": "floatBufferViews",
      "target": 34963
    },
    {
      "buffer": 0,
      "byteLength": 1706592,
      "byteOffset": 1166208,
      "byteStride": 12,
      "name": "floatBufferViews",
      "target": 34962
    }
  ],
  "buffers": [
    {
      "byteLength": 2872800,
      "uri": "scene.bin"
    }
  ],
  "materials": [
    {
      "doubleSided": false,
      "name": "material_0",
      "pbrMetallicRoughness": {
        "baseColorFactor": [
          0.29109019149999998,
          0.29109019149999998,
          0.29109019149999998,
          1
        ],
        "metallicFactor": 1,
        "roughnessFactor": 0.27494754430000001
      }
    }
  ],
  "meshes": [
    {
      "primitives": [
        {
          "attributes": {
            "NORMAL": 1,
            "POSITION": 0
          },
          "indices": 2,
          "material": 0,
          "mode": 4
        }
      ]
    },
    {
      "primitives": [
        {
          "attributes": {
            "NORMAL": 4,
            "POSITION": 3
          },
          "indices": 5,
          "material": 0,
          "mode": 4
        }
      ]
    },
    {
      "primitives": [
        {
          "attributes": {
            "NORMAL": 7,
            "POSITION": 6
          },
          "indices": 8,
          "material": 0,
          "mode": 4
        }
      ]
    }
  ],
  "nodes": [
    {
      "children": [
        1
      ],
      "name": "RootNode (gltf orientation matrix)",
      "rotation": [
        -0.70710678118654746,
        -0,
        -0,
        0.70710678118654757
      ]
    },
    {
      "children": [
        2
      ],
      "name": "RootNode (model correction matrix)"
    },
    {
      "children": [
        3,
        4,
        5
      ],
      "name": "Floor_tile_08.obj.cleaner.materialmerger.gles"
    },
    {
      "mesh": 0,
      "name": ""
    },
    {
      "mesh": 1,
      "name": ""
    },
    {
      "mesh": 2,
      "name": ""
    }
  ],
  "scene": 0,
  "scenes": [
    {
      "name": "OSG_Scene",
      "nodes": [
        0
      ]
    }
  ]
}

